<?xml version="1.0" standalone="no"?>
<!DOCTYPE svg PUBLIC "-//W3C//DTD SVG 20010904//EN"
 "http://www.w3.org/TR/2001/REC-SVG-20010904/DTD/svg10.dtd">
<svg version="1.0" xmlns="http://www.w3.org/2000/svg"
 width="370.000000pt" height="370.000000pt" viewBox="0 0 370.000000 370.000000"
 preserveAspectRatio="xMidYMid meet">
<metadata>
Created by potrace 1.16, written by Peter Selinger 2001-2019
</metadata>
<g transform="translate(0.000000,370.000000) scale(0.100000,-0.100000)"
fill="#000000" stroke="none">
<path d="M2705 2241 c-4 -3 -16 -7 -28 -8 -12 -1 -40 -4 -62 -8 -22 -4 -49 -9
-60 -10 -11 -2 -22 -4 -25 -5 -3 -1 -8 -2 -12 -1 -3 0 -28 -6 -54 -14 -27 -8
-50 -12 -53 -10 -2 3 -10 0 -18 -6 -7 -6 -13 -9 -13 -6 0 3 -20 0 -44 -7 -25
-8 -47 -12 -50 -9 -2 3 -11 1 -18 -3 -14 -9 -31 -14 -65 -17 -13 -1 -23 -5
-23 -8 0 -7 -75 -23 -97 -22 -7 0 -13 -4 -13 -9 0 -5 -6 -8 -12 -5 -7 2 -28
-2 -46 -10 -18 -7 -37 -11 -42 -8 -6 4 -10 2 -10 -4 0 -5 -8 -10 -17 -10 -46
-2 -63 -6 -63 -14 0 -5 -6 -7 -12 -4 -7 2 -28 -2 -46 -10 -18 -7 -37 -11 -42
-8 -6 4 -10 1 -10 -4 0 -6 -3 -10 -7 -10 -5 1 -10 0 -13 -1 -3 -1 -12 -3 -20
-5 -8 -2 -42 -11 -75 -21 -33 -9 -68 -16 -77 -16 -10 0 -18 -4 -18 -10 0 -6
-3 -9 -6 -5 -3 3 -23 -1 -44 -8 -21 -7 -40 -12 -42 -9 -3 2 -30 -5 -61 -15
-32 -11 -57 -18 -57 -16 0 1 -21 -3 -46 -11 -26 -7 -50 -11 -55 -8 -5 3 -9 0
-9 -6 0 -6 -6 -10 -13 -9 -6 1 -30 -1 -52 -6 -22 -5 -49 -10 -60 -11 -11 -1
-20 -3 -20 -4 0 -2 -42 -8 -95 -15 -19 -2 -37 -5 -40 -6 -10 -4 -57 -9 -150
-14 -52 -3 -104 -7 -114 -10 -23 -5 -281 18 -281 25 0 1 -9 3 -20 5 -87 12
-182 71 -210 132 -17 35 -17 39 -2 66 15 25 15 28 1 34 -24 9 -44 -27 -41 -73
4 -51 45 -106 106 -142 51 -30 137 -63 145 -55 2 3 11 1 18 -3 7 -4 19 -9 28
-10 173 -21 257 -23 405 -10 50 5 102 10 118 11 15 1 28 4 30 5 1 1 13 4 27 5
14 2 45 6 70 10 25 4 54 8 65 9 11 0 26 5 33 10 7 4 16 6 18 3 3 -3 29 1 58 9
29 7 70 16 91 19 21 2 52 9 69 15 30 9 93 21 129 23 9 1 17 5 17 10 0 5 6 7
13 4 6 -2 28 2 49 9 20 7 51 15 70 18 18 3 48 10 66 15 17 5 32 7 32 4 0 -3 7
0 15 7 8 7 15 10 15 7 0 -3 21 0 47 8 25 8 49 14 52 13 3 0 8 0 11 2 6 2 37 8
65 12 11 2 26 7 33 12 7 4 16 6 18 3 3 -3 26 2 51 9 26 8 49 12 51 9 3 -3 11
0 19 6 7 6 13 9 13 6 0 -3 23 1 52 9 29 7 54 11 57 9 2 -3 10 0 18 7 7 6 16 8
19 5 3 -3 21 -1 40 4 19 6 48 12 64 14 17 3 45 7 63 10 219 35 446 48 607 34
36 -3 71 -9 78 -13 7 -4 17 -4 22 -1 6 3 15 3 22 -1 7 -4 24 -9 38 -11 61 -6
170 -79 155 -103 -3 -5 -1 -11 4 -14 4 -3 5 -25 1 -48 -10 -54 -66 -107 -136
-127 -56 -17 -160 -21 -219 -9 -97 21 -160 79 -125 114 8 8 6 15 -4 23 -22 19
-50 -27 -37 -61 12 -32 87 -93 126 -103 155 -39 285 -17 377 65 46 41 51 50
55 96 6 60 -8 93 -64 146 -41 39 -159 108 -186 108 -9 0 -17 5 -17 12 0 6 -2
9 -6 6 -3 -3 -25 0 -49 7 -24 8 -46 11 -49 8 -3 -3 -11 -1 -18 5 -14 11 -362
14 -373 3z"/>
</g>
</svg>
